<svg width="12" height="12" viewBox="0 0 12 12" fill="none" xmlns="http://www.w3.org/2000/svg">
<path d="M10.6665 6C10.6665 6.36667 10.9665 6.66667 11.3332 6.66667H11.3398C11.7065 6.66667 12.0065 6.36667 12.0065 6C12.0065 2.68667 9.31984 0 6.00651 0C4.48651 0 3.07984 0.573334 2.00651 1.51333V0.666666C2.00651 0.299999 1.70651 0 1.33984 0C0.973177 0 0.673177 0.299999 0.673177 0.666666L0.673177 3.33333C0.673177 3.34667 0.676511 3.36 0.679844 3.37333C0.683177 3.38667 0.68651 3.4 0.68651 3.41333C0.693177 3.46 0.699844 3.5 0.713177 3.54667C0.723104 3.57645 0.736727 3.60253 0.751294 3.63043C0.756292 3.64 0.761401 3.64978 0.76651 3.66C0.773398 3.67033 0.779842 3.68022 0.78607 3.68978C0.803954 3.71722 0.820065 3.74194 0.839844 3.76667C0.86651 3.80667 0.899844 3.83333 0.939844 3.86C0.948332 3.86566 0.95562 3.87372 0.963235 3.88214C0.973563 3.89357 0.984495 3.90566 0.999844 3.91333C1.01318 3.92667 1.02651 3.92667 1.03984 3.92667C1.06901 3.94125 1.09817 3.94874 1.12992 3.9569C1.14171 3.95993 1.15387 3.96305 1.16651 3.96667C1.20651 3.98 1.24651 3.99333 1.29318 3.99333C1.30651 3.99333 1.33318 4 1.33318 4L3.99984 4C4.36651 4 4.66651 3.7 4.66651 3.33333C4.66651 2.96667 4.36651 2.66667 3.99984 2.66667H2.69984C3.55318 1.84667 4.72651 1.33333 5.99984 1.33333C8.57984 1.33333 10.6665 3.42 10.6665 6Z" fill="#000107" fill-opacity="0.8824"/>
<path d="M6 10.6667C3.42 10.6667 1.33333 8.58 1.33333 6C1.33333 5.63333 1.03333 5.33333 0.666667 5.33333C0.3 5.33333 0 5.63333 0 6C0 9.31333 2.68667 12 5.99333 12C7.52 12 8.92667 11.42 10 10.48V11.3333C10 11.7 10.3 12 10.6667 12C11.0333 12 11.3333 11.7 11.3333 11.3333V8.66C11.3333 8.61333 11.32 8.56667 11.3067 8.52C11.3 8.50667 11.3 8.48667 11.3 8.47333C11.28 8.40667 11.2533 8.34667 11.2133 8.29333C11.2067 8.28667 11.2017 8.27833 11.1967 8.27C11.1917 8.26167 11.1867 8.25333 11.18 8.24667C11.14 8.2 11.0867 8.16 11.0333 8.12C11.0286 8.11528 11.0247 8.11055 11.0211 8.10613C11.0144 8.09806 11.0086 8.09097 11 8.08667C10.9933 8.08 10.9867 8.08 10.98 8.08C10.9333 8.05333 10.88 8.04 10.8267 8.02667C10.8124 8.02429 10.799 8.02107 10.7858 8.0179C10.7621 8.01219 10.7391 8.00667 10.7133 8.00667C10.7 8.00667 10.6733 8 10.6733 8L8.00667 8C7.64 8 7.34 8.3 7.34 8.66667C7.34 9.03333 7.64 9.33333 8.00667 9.33333L9.3 9.33333C8.44667 10.1533 7.27333 10.6667 6 10.6667Z" fill="#000107" fill-opacity="0.8824"/>
</svg>
