<svg width="16" height="16" viewBox="0 0 16 16" fill="none" xmlns="http://www.w3.org/2000/svg">
<path fill-rule="evenodd" clip-rule="evenodd" d="M12.2426 3.75736C9.89949 1.41421 6.10051 1.41421 3.75736 3.75736C1.41422 6.10049 1.41421 9.89948 3.75736 12.2426C6.10049 14.5858 9.89948 14.5858 12.2426 12.2426C14.5858 9.89949 14.5858 6.10051 12.2426 3.75736ZM2.6967 2.6967C5.62563 -0.232232 10.3744 -0.232234 13.3033 2.6967C16.2322 5.62563 16.2322 10.3744 13.3033 13.3033C10.3744 16.2322 5.62562 16.2322 2.6967 13.3033C-0.232233 10.3744 -0.232234 5.62562 2.6967 2.6967ZM5.34858 9.59099C5.64147 9.2981 6.11634 9.2981 6.40924 9.59099C7.28791 10.4697 8.71253 10.4697 9.59121 9.59099C9.88411 9.2981 10.359 9.2981 10.6519 9.59099C10.9448 9.88388 10.9448 10.3588 10.6519 10.6517C9.18741 12.1161 6.81304 12.1161 5.34857 10.6517C5.05568 10.3588 5.05568 9.88388 5.34858 9.59099Z" fill="#000211" fill-opacity="0.6157"/>
<path d="M6.875 6.125C6.875 6.74632 6.45527 7.25 5.9375 7.25C5.41973 7.25 5 6.74632 5 6.125C5 5.50368 5.41973 5 5.9375 5C6.45527 5 6.875 5.50368 6.875 6.125Z" fill="#000211" fill-opacity="0.6157"/>
<path d="M11 6.125C11 6.74632 10.5803 7.25 10.0625 7.25C9.54473 7.25 9.125 6.74632 9.125 6.125C9.125 5.50368 9.54473 5 10.0625 5C10.5803 5 11 5.50368 11 6.125Z" fill="#000211" fill-opacity="0.6157"/>
</svg>
