<svg width="14" height="14" viewBox="0 0 14 14" fill="none" xmlns="http://www.w3.org/2000/svg">
<path d="M4.48047 9.80055C4.27336 10.1593 4.39627 10.618 4.75499 10.8251C5.11371 11.0322 5.5724 10.9093 5.77951 10.5506L9.52951 4.05536C9.73661 3.69664 9.61371 3.23795 9.25499 3.03084C8.89627 2.82374 8.43758 2.94664 8.23047 3.30536L4.48047 9.80055Z" fill="#000211" fill-opacity="0.6157"/>
<path fill-rule="evenodd" clip-rule="evenodd" d="M2.5 0.25C1.25736 0.25 0.25 1.25736 0.25 2.5V11.5C0.25 12.7426 1.25736 13.75 2.5 13.75H11.5C12.7426 13.75 13.75 12.7426 13.75 11.5V2.5C13.75 1.25736 12.7426 0.25 11.5 0.25H2.5ZM1.75 2.5C1.75 2.08579 2.08579 1.75 2.5 1.75H11.5C11.9142 1.75 12.25 2.08579 12.25 2.5V11.5C12.25 11.9142 11.9142 12.25 11.5 12.25H2.5C2.08579 12.25 1.75 11.9142 1.75 11.5V2.5Z" fill="#000211" fill-opacity="0.6157"/>
</svg>
